<svg width="166" height="52" viewBox="0 0 166 52" fill="none" xmlns="http://www.w3.org/2000/svg">
<path d="M1.121 46.3126V49.5318H0V41.3087H3.1353C4.06558 41.3087 4.79345 41.5384 5.31892 41.9978C5.84828 42.4571 6.11296 43.0652 6.11296 43.822C6.11296 44.6202 5.85412 45.2358 5.33644 45.6687C4.82264 46.098 4.08504 46.3126 3.12363 46.3126H1.121ZM1.121 45.4259H3.1353C3.73473 45.4259 4.19403 45.2904 4.5132 45.0193C4.83237 44.7444 4.99196 44.3491 4.99196 43.8333C4.99196 43.3438 4.83237 42.9522 4.5132 42.6585C4.19403 42.3649 3.75613 42.2124 3.19953 42.2011H1.121V45.4259Z" fill="white"/>
<path d="M11.802 49.5318C11.7398 49.4113 11.6892 49.1967 11.6502 48.8879C11.1481 49.3924 10.5487 49.6447 9.85197 49.6447C9.22919 49.6447 8.71735 49.4753 8.31643 49.1364C7.91941 48.7938 7.7209 48.3608 7.7209 47.8375C7.7209 47.2012 7.97001 46.7079 8.46824 46.3578C8.97035 46.0038 9.67487 45.8269 10.5818 45.8269H11.6327V45.3468C11.6327 44.9816 11.5199 44.6917 11.2941 44.4771C11.0683 44.2587 10.7355 44.1495 10.2957 44.1495C9.91036 44.1495 9.58729 44.2437 9.3265 44.4319C9.06571 44.6202 8.93532 44.848 8.93532 45.1153H7.84935C7.84935 44.8103 7.96028 44.5166 8.18215 44.2342C8.4079 43.9481 8.71151 43.7222 9.09296 43.5565C9.4783 43.3909 9.90063 43.308 10.3599 43.308C11.0878 43.308 11.658 43.485 12.0706 43.8389C12.4832 44.1891 12.6973 44.6729 12.7129 45.2904V48.1029C12.7129 48.6639 12.7868 49.1101 12.9347 49.4414V49.5318H11.802ZM10.0096 48.7354C10.3482 48.7354 10.6694 48.6507 10.973 48.4813C11.2766 48.3119 11.4965 48.0916 11.6327 47.8205V46.5667H10.7861C9.46273 46.5667 8.80103 46.9414 8.80103 47.6906C8.80103 48.0182 8.91391 48.2742 9.13967 48.4587C9.36543 48.6432 9.65541 48.7354 10.0096 48.7354Z" fill="white"/>
<path d="M18.6822 47.9109C18.6822 47.6285 18.5713 47.4101 18.3494 47.2557C18.1314 47.0976 17.748 46.9621 17.1992 46.8491C16.6543 46.7362 16.2203 46.6006 15.8972 46.4425C15.578 46.2843 15.3406 46.0961 15.1849 45.8777C15.0331 45.6593 14.9572 45.3995 14.9572 45.0983C14.9572 44.5976 15.1752 44.174 15.6111 43.8276C16.051 43.4812 16.6115 43.308 17.2926 43.308C18.0088 43.308 18.5888 43.4869 19.0325 43.8446C19.4801 44.2022 19.7039 44.6597 19.7039 45.2169H18.618C18.618 44.9308 18.4915 44.6842 18.2385 44.4771C17.9894 44.27 17.6741 44.1665 17.2926 44.1665C16.8995 44.1665 16.592 44.2493 16.3701 44.415C16.1483 44.5806 16.0373 44.7971 16.0373 45.0644C16.0373 45.3167 16.1405 45.5069 16.3468 45.6349C16.5531 45.7629 16.9248 45.8852 17.4619 46.002C18.003 46.1187 18.4409 46.258 18.7756 46.4199C19.1104 46.5818 19.3575 46.7776 19.5171 47.0072C19.6806 47.2332 19.7623 47.5099 19.7623 47.8375C19.7623 48.3834 19.5366 48.822 19.0851 49.1534C18.6335 49.4809 18.0477 49.6447 17.3277 49.6447C16.8216 49.6447 16.374 49.5581 15.9848 49.3849C15.5955 49.2117 15.29 48.9708 15.0681 48.662C14.8502 48.3495 14.7412 48.0125 14.7412 47.6511H15.8213C15.8408 48.0012 15.9848 48.2799 16.2534 48.4869C16.5258 48.6903 16.8839 48.7919 17.3277 48.7919C17.7364 48.7919 18.0633 48.7128 18.3085 48.5547C18.5576 48.3928 18.6822 48.1782 18.6822 47.9109Z" fill="white"/>
<path d="M27.1037 46.5441C27.1037 47.4741 26.8838 48.2234 26.444 48.7919C26.0041 49.3604 25.4086 49.6447 24.6574 49.6447C23.8906 49.6447 23.2873 49.4094 22.8474 48.9388V51.8812H21.7673V43.421H22.754L22.8065 44.0987C23.2464 43.5716 23.8575 43.308 24.6399 43.308C25.3989 43.308 25.9983 43.5848 26.4381 44.1382C26.8819 44.6917 27.1037 45.4617 27.1037 46.4481V46.5441ZM26.0236 46.4255C26.0236 45.7365 25.8718 45.1925 25.5682 44.7934C25.2646 44.3943 24.8481 44.1947 24.3187 44.1947C23.6648 44.1947 23.1744 44.4752 22.8474 45.0362V47.9561C23.1705 48.5133 23.6648 48.7919 24.3304 48.7919C24.8481 48.7919 25.2587 48.5942 25.5623 48.1989C25.8698 47.7998 26.0236 47.2087 26.0236 46.4255Z" fill="white"/>
<path d="M32.9796 49.5318C32.9174 49.4113 32.8668 49.1967 32.8278 48.8879C32.3257 49.3924 31.7263 49.6447 31.0296 49.6447C30.4068 49.6447 29.8949 49.4753 29.494 49.1364C29.097 48.7938 28.8985 48.3608 28.8985 47.8375C28.8985 47.2012 29.1476 46.7079 29.6458 46.3578C30.1479 46.0038 30.8525 45.8269 31.7594 45.8269H32.8103V45.3468C32.8103 44.9816 32.6974 44.6917 32.4717 44.4771C32.2459 44.2587 31.9131 44.1495 31.4733 44.1495C31.0879 44.1495 30.7649 44.2437 30.5041 44.4319C30.2433 44.6202 30.1129 44.848 30.1129 45.1153H29.0269C29.0269 44.8103 29.1379 44.5166 29.3597 44.2342C29.5855 43.9481 29.8891 43.7222 30.2706 43.5565C30.6559 43.3909 31.0782 43.308 31.5375 43.308C32.2654 43.308 32.8356 43.485 33.2482 43.8389C33.6608 44.1891 33.8749 44.6729 33.8905 45.2904V48.1029C33.8905 48.6639 33.9644 49.1101 34.1123 49.4414V49.5318H32.9796ZM31.1872 48.7354C31.5258 48.7354 31.847 48.6507 32.1506 48.4813C32.4542 48.3119 32.6741 48.0916 32.8103 47.8205V46.5667H31.9637C30.6403 46.5667 29.9786 46.9414 29.9786 47.6906C29.9786 48.0182 30.0915 48.2742 30.3173 48.4587C30.543 48.6432 30.833 48.7354 31.1872 48.7354Z" fill="white"/>
<path d="M39.2351 44.3585C39.0716 44.3321 38.8945 44.319 38.7038 44.319C37.9953 44.319 37.5146 44.6108 37.2616 45.1943V49.5318H36.1815V43.421H37.2324L37.25 44.1269C37.6042 43.581 38.1063 43.308 38.7563 43.308C38.9665 43.308 39.1261 43.3344 39.2351 43.3871V44.3585Z" fill="white"/>
<path d="M42.5887 41.9413V43.421H43.7681V44.2286H42.5887V48.0182C42.5887 48.2629 42.6413 48.4474 42.7464 48.5717C42.8515 48.6921 43.0305 48.7524 43.2835 48.7524C43.4081 48.7524 43.5793 48.7298 43.7973 48.6846V49.5318C43.5132 49.6071 43.2368 49.6447 42.9682 49.6447C42.4856 49.6447 42.1216 49.5035 41.8764 49.2211C41.6312 48.9388 41.5086 48.5378 41.5086 48.0182V44.2286H40.3584V43.421H41.5086V41.9413H42.5887Z" fill="white"/>
<path d="M45.2301 46.4199C45.2301 45.8212 45.3508 45.2828 45.5921 44.8047C45.8373 44.3265 46.1759 43.9575 46.608 43.6977C47.0439 43.4379 47.5402 43.308 48.0968 43.308C48.957 43.308 49.6518 43.5961 50.1812 44.1721C50.7144 44.7482 50.9811 45.5144 50.9811 46.4707V46.5441C50.9811 47.139 50.8623 47.6737 50.6249 48.1481C50.3914 48.6187 50.0547 48.9858 49.6148 49.2494C49.1789 49.5129 48.6768 49.6447 48.1085 49.6447C47.2522 49.6447 46.5574 49.3567 46.0241 48.7806C45.4948 48.2046 45.2301 47.4421 45.2301 46.4933V46.4199ZM46.3161 46.5441C46.3161 47.2219 46.4776 47.7659 46.8007 48.1763C47.1276 48.5867 47.5636 48.7919 48.1085 48.7919C48.6573 48.7919 49.0933 48.5848 49.4163 48.1707C49.7394 47.7527 49.9009 47.1691 49.9009 46.4199C49.9009 45.7497 49.7355 45.2075 49.4047 44.7934C49.0777 44.3754 48.6418 44.1665 48.0968 44.1665C47.5636 44.1665 47.1335 44.3717 46.8065 44.7821C46.4795 45.1925 46.3161 45.7798 46.3161 46.5441Z" fill="white"/>
<path d="M52.6474 46.4199C52.6474 45.8212 52.768 45.2828 53.0094 44.8047C53.2546 44.3265 53.5932 43.9575 54.0253 43.6977C54.4612 43.4379 54.9575 43.308 55.5141 43.308C56.3743 43.308 57.0691 43.5961 57.5985 44.1721C58.1317 44.7482 58.3984 45.5144 58.3984 46.4707V46.5441C58.3984 47.139 58.2796 47.6737 58.0422 48.1481C57.8087 48.6187 57.472 48.9858 57.0321 49.2494C56.5962 49.5129 56.0941 49.6447 55.5258 49.6447C54.6695 49.6447 53.9747 49.3567 53.4414 48.7806C52.9121 48.2046 52.6474 47.4421 52.6474 46.4933V46.4199ZM53.7334 46.5441C53.7334 47.2219 53.8949 47.7659 54.218 48.1763C54.5449 48.5867 54.9809 48.7919 55.5258 48.7919C56.0746 48.7919 56.5106 48.5848 56.8336 48.1707C57.1567 47.7527 57.3182 47.1691 57.3182 46.4199C57.3182 45.7497 57.1528 45.2075 56.8219 44.7934C56.495 44.3754 56.059 44.1665 55.5141 44.1665C54.9809 44.1665 54.5508 44.3717 54.2238 44.7821C53.8968 45.1925 53.7334 45.7798 53.7334 46.5441Z" fill="white"/>
<path d="M68.8891 45.7309H65.2049V48.6451H69.4846V49.5318H64.0839V41.3087H69.4262V42.2011H65.2049V44.8442H68.8891V45.7309Z" fill="white"/>
<path d="M70.9291 46.4255C70.9291 45.488 71.1587 44.735 71.618 44.1665C72.0773 43.5942 72.6787 43.308 73.4221 43.308C74.1617 43.308 74.7475 43.5528 75.1795 44.0422V40.8569H76.2597V49.5318H75.2671L75.2146 48.8766C74.7825 49.3887 74.1811 49.6447 73.4104 49.6447C72.6787 49.6447 72.0812 49.3548 71.618 48.775C71.1587 48.1951 70.9291 47.4384 70.9291 46.5046V46.4255ZM72.0092 46.5441C72.0092 47.2369 72.1571 47.7791 72.4529 48.1707C72.7487 48.5622 73.1574 48.758 73.679 48.758C74.3641 48.758 74.8642 48.4606 75.1795 47.8657V45.0588C74.8565 44.4827 74.3602 44.1947 73.6907 44.1947C73.1613 44.1947 72.7487 44.3924 72.4529 44.7877C72.1571 45.1831 72.0092 45.7685 72.0092 46.5441Z" fill="white"/>
<path d="M82.4392 48.9275C82.0188 49.4056 81.4019 49.6447 80.5884 49.6447C79.915 49.6447 79.4012 49.4565 79.047 49.0799C78.6967 48.6997 78.5196 48.1387 78.5157 47.3969V43.421H79.5958V47.3687C79.5958 48.2949 79.985 48.758 80.7635 48.758C81.5887 48.758 82.1375 48.4606 82.41 47.8657V43.421H83.4901V49.5318H82.4625L82.4392 48.9275Z" fill="white"/>
<path d="M88.2684 48.7919C88.6537 48.7919 88.9904 48.679 89.2785 48.4531C89.5665 48.2271 89.7261 47.9448 89.7572 47.6059H90.779C90.7595 47.9561 90.6349 48.2893 90.4053 48.6055C90.1756 48.9218 89.8681 49.1741 89.4828 49.3623C89.1013 49.5506 88.6965 49.6447 88.2684 49.6447C87.4082 49.6447 86.7231 49.368 86.2132 48.8145C85.7072 48.2573 85.4542 47.4967 85.4542 46.5328V46.3578C85.4542 45.7629 85.5671 45.2339 85.7928 44.7708C86.0186 44.3077 86.3417 43.9481 86.762 43.6921C87.1863 43.436 87.6865 43.308 88.2626 43.308C88.971 43.308 89.5587 43.5132 90.0258 43.9236C90.4968 44.334 90.7478 44.8668 90.779 45.5219H89.7572C89.7261 45.1266 89.5704 44.8028 89.2901 44.5505C89.0138 44.2945 88.6712 44.1665 88.2626 44.1665C87.7137 44.1665 87.2875 44.3585 86.9839 44.7425C86.6842 45.1228 86.5343 45.6744 86.5343 46.3973V46.595C86.5343 47.299 86.6842 47.8412 86.9839 48.2215C87.2836 48.6018 87.7118 48.7919 88.2684 48.7919Z" fill="white"/>
<path d="M96.4914 49.5318C96.4291 49.4113 96.3785 49.1967 96.3396 48.8879C95.8375 49.3924 95.2381 49.6447 94.5413 49.6447C93.9185 49.6447 93.4067 49.4753 93.0058 49.1364C92.6088 48.7938 92.4103 48.3608 92.4103 47.8375C92.4103 47.2012 92.6594 46.7079 93.1576 46.3578C93.6597 46.0038 94.3642 45.8269 95.2711 45.8269H96.3221V45.3468C96.3221 44.9816 96.2092 44.6917 95.9835 44.4771C95.7577 44.2587 95.4249 44.1495 94.9851 44.1495C94.5997 44.1495 94.2766 44.2437 94.0159 44.4319C93.7551 44.6202 93.6247 44.848 93.6247 45.1153H92.5387C92.5387 44.8103 92.6496 44.5166 92.8715 44.2342C93.0973 43.9481 93.4009 43.7222 93.7823 43.5565C94.1677 43.3909 94.59 43.308 95.0493 43.308C95.7772 43.308 96.3474 43.485 96.76 43.8389C97.1726 44.1891 97.3867 44.6729 97.4022 45.2904V48.1029C97.4022 48.6639 97.4762 49.1101 97.6241 49.4414V49.5318H96.4914ZM94.699 48.7354C95.0376 48.7354 95.3587 48.6507 95.6623 48.4813C95.9659 48.3119 96.1859 48.0916 96.3221 47.8205V46.5667H95.4755C94.1521 46.5667 93.4904 46.9414 93.4904 47.6906C93.4904 48.0182 93.6033 48.2742 93.829 48.4587C94.0548 48.6432 94.3448 48.7354 94.699 48.7354Z" fill="white"/>
<path d="M101.159 41.9413V43.421H102.338V44.2286H101.159V48.0182C101.159 48.2629 101.211 48.4474 101.316 48.5717C101.421 48.6921 101.601 48.7524 101.854 48.7524C101.978 48.7524 102.149 48.7298 102.367 48.6846V49.5318C102.083 49.6071 101.807 49.6447 101.538 49.6447C101.056 49.6447 100.692 49.5035 100.446 49.2211C100.201 48.9388 100.079 48.5378 100.079 48.0182V44.2286H98.9284V43.421H100.079V41.9413H101.159Z" fill="white"/>
<path d="M105.377 49.5318H104.296V43.421H105.377V49.5318ZM104.209 41.8001C104.209 41.6307 104.261 41.4876 104.366 41.3709C104.475 41.2542 104.635 41.1958 104.845 41.1958C105.055 41.1958 105.215 41.2542 105.324 41.3709C105.433 41.4876 105.487 41.6307 105.487 41.8001C105.487 41.9695 105.433 42.1107 105.324 42.2237C105.215 42.3366 105.055 42.3931 104.845 42.3931C104.635 42.3931 104.475 42.3366 104.366 42.2237C104.261 42.1107 104.209 41.9695 104.209 41.8001Z" fill="white"/>
<path d="M107.422 46.4199C107.422 45.8212 107.543 45.2828 107.784 44.8047C108.03 44.3265 108.368 43.9575 108.8 43.6977C109.236 43.4379 109.732 43.308 110.289 43.308C111.149 43.308 111.844 43.5961 112.373 44.1721C112.907 44.7482 113.173 45.5144 113.173 46.4707V46.5441C113.173 47.139 113.055 47.6737 112.817 48.1481C112.584 48.6187 112.247 48.9858 111.807 49.2494C111.371 49.5129 110.869 49.6447 110.301 49.6447C109.444 49.6447 108.75 49.3567 108.216 48.7806C107.687 48.2046 107.422 47.4421 107.422 46.4933V46.4199ZM108.508 46.5441C108.508 47.2219 108.67 47.7659 108.993 48.1763C109.32 48.5867 109.756 48.7919 110.301 48.7919C110.85 48.7919 111.286 48.5848 111.609 48.1707C111.932 47.7527 112.093 47.1691 112.093 46.4199C112.093 45.7497 111.928 45.2075 111.597 44.7934C111.27 44.3754 110.834 44.1665 110.289 44.1665C109.756 44.1665 109.326 44.3717 108.999 44.7821C108.672 45.1925 108.508 45.7798 108.508 46.5441Z" fill="white"/>
<path d="M116.147 43.421L116.183 44.1891C116.665 43.6017 117.296 43.308 118.074 43.308C119.409 43.308 120.083 44.0366 120.094 45.4937V49.5318H119.014V45.488C119.01 45.0475 118.905 44.7218 118.699 44.511C118.497 44.3001 118.179 44.1947 117.747 44.1947C117.397 44.1947 117.089 44.2851 116.825 44.4658C116.56 44.6465 116.354 44.8837 116.206 45.1774V49.5318H115.126V43.421H116.147Z" fill="white"/>
<path d="M127.175 46.3126V49.5318H126.054V41.3087H129.19C130.12 41.3087 130.848 41.5384 131.373 41.9978C131.903 42.4571 132.167 43.0652 132.167 43.822C132.167 44.6202 131.908 45.2358 131.391 45.6687C130.877 46.098 130.139 46.3126 129.178 46.3126H127.175ZM127.175 45.4259H129.19C129.789 45.4259 130.248 45.2904 130.568 45.0193C130.887 44.7444 131.046 44.3491 131.046 43.8333C131.046 43.3438 130.887 42.9522 130.568 42.6585C130.248 42.3649 129.81 42.2124 129.254 42.2011H127.175V45.4259Z" fill="white"/>
<path d="M137.08 44.3585C136.916 44.3321 136.739 44.319 136.549 44.319C135.84 44.319 135.359 44.6108 135.106 45.1943V49.5318H134.026V43.421H135.077L135.095 44.1269C135.449 43.581 135.951 43.308 136.601 43.308C136.811 43.308 136.971 43.3344 137.08 43.3871V44.3585Z" fill="white"/>
<path d="M138.273 46.4199C138.273 45.8212 138.394 45.2828 138.635 44.8047C138.88 44.3265 139.219 43.9575 139.651 43.6977C140.087 43.4379 140.583 43.308 141.14 43.308C142 43.308 142.695 43.5961 143.224 44.1721C143.758 44.7482 144.024 45.5144 144.024 46.4707V46.5441C144.024 47.139 143.906 47.6737 143.668 48.1481C143.435 48.6187 143.098 48.9858 142.658 49.2494C142.222 49.5129 141.72 49.6447 141.152 49.6447C140.295 49.6447 139.601 49.3567 139.067 48.7806C138.538 48.2046 138.273 47.4421 138.273 46.4933V46.4199ZM139.359 46.5441C139.359 47.2219 139.521 47.7659 139.844 48.1763C140.171 48.5867 140.607 48.7919 141.152 48.7919C141.7 48.7919 142.136 48.5848 142.459 48.1707C142.783 47.7527 142.944 47.1691 142.944 46.4199C142.944 45.7497 142.779 45.2075 142.448 44.7934C142.121 44.3754 141.685 44.1665 141.14 44.1665C140.607 44.1665 140.177 44.3717 139.85 44.7821C139.523 45.1925 139.359 45.7798 139.359 46.5441Z" fill="white"/>
<path d="M147.092 43.421V50.2377C147.092 51.4124 146.541 51.9998 145.439 51.9998C145.202 51.9998 144.982 51.9659 144.78 51.8981V51.0623C144.904 51.0924 145.068 51.1075 145.27 51.1075C145.511 51.1075 145.694 51.0435 145.819 50.9154C145.947 50.7912 146.012 50.5728 146.012 50.2603V43.421H147.092ZM145.901 41.8001C145.901 41.6344 145.953 41.4932 146.058 41.3765C146.167 41.256 146.325 41.1958 146.531 41.1958C146.741 41.1958 146.901 41.2542 147.01 41.3709C147.119 41.4876 147.174 41.6307 147.174 41.8001C147.174 41.9695 147.119 42.1107 147.01 42.2237C146.901 42.3366 146.741 42.3931 146.531 42.3931C146.321 42.3931 146.163 42.3366 146.058 42.2237C145.953 42.1107 145.901 41.9695 145.901 41.8001Z" fill="white"/>
<path d="M152.057 49.6447C151.201 49.6447 150.504 49.3736 149.967 48.8314C149.43 48.2855 149.161 47.557 149.161 46.6458V46.4538C149.161 45.8476 149.28 45.3073 149.517 44.8329C149.758 44.3547 150.093 43.982 150.521 43.7147C150.953 43.4436 151.421 43.308 151.923 43.308C152.744 43.308 153.382 43.5697 153.838 44.093C154.293 44.6164 154.521 45.3657 154.521 46.3408V46.7757H150.241C150.257 47.3781 150.438 47.8657 150.784 48.2384C151.134 48.6074 151.578 48.7919 152.115 48.7919C152.497 48.7919 152.82 48.7166 153.084 48.566C153.349 48.4154 153.581 48.2158 153.779 47.9674L154.439 48.4643C153.91 49.2513 153.116 49.6447 152.057 49.6447ZM151.923 44.1665C151.487 44.1665 151.121 44.3208 150.825 44.6296C150.529 44.9346 150.346 45.3638 150.276 45.9172H153.441V45.8382C153.41 45.3073 153.262 44.8969 152.997 44.607C152.732 44.3133 152.374 44.1665 151.923 44.1665Z" fill="white"/>
<path d="M158.908 48.7919C159.293 48.7919 159.63 48.679 159.918 48.4531C160.206 48.2271 160.366 47.9448 160.397 47.6059H161.418C161.399 47.9561 161.274 48.2893 161.045 48.6055C160.815 48.9218 160.508 49.1741 160.122 49.3623C159.741 49.5506 159.336 49.6447 158.908 49.6447C158.048 49.6447 157.363 49.368 156.853 48.8145C156.347 48.2573 156.094 47.4967 156.094 46.5328V46.3578C156.094 45.7629 156.207 45.2339 156.432 44.7708C156.658 44.3077 156.981 43.9481 157.402 43.6921C157.826 43.436 158.326 43.308 158.902 43.308C159.61 43.308 160.198 43.5132 160.665 43.9236C161.136 44.334 161.387 44.8668 161.418 45.5219H160.397C160.366 45.1266 160.21 44.8028 159.93 44.5505C159.653 44.2945 159.311 44.1665 158.902 44.1665C158.353 44.1665 157.927 44.3585 157.623 44.7425C157.324 45.1228 157.174 45.6744 157.174 46.3973V46.595C157.174 47.299 157.324 47.8412 157.623 48.2215C157.923 48.6018 158.351 48.7919 158.908 48.7919Z" fill="white"/>
<path d="M164.696 41.9413V43.421H165.876V44.2286H164.696V48.0182C164.696 48.2629 164.749 48.4474 164.854 48.5717C164.959 48.6921 165.138 48.7524 165.391 48.7524C165.516 48.7524 165.687 48.7298 165.905 48.6846V49.5318C165.621 49.6071 165.344 49.6447 165.076 49.6447C164.593 49.6447 164.229 49.5035 163.984 49.2211C163.739 48.9388 163.616 48.5378 163.616 48.0182V44.2286H162.466V43.421H163.616V41.9413H164.696Z" fill="white"/>
<path d="M50.7598 0.389329H56.3359L60.9254 25.1766L65.2576 0.389329H70.9624L63.9708 35.4289H57.7513L50.7598 0.389329Z" fill="white"/>
<path d="M76.6511 0.389329H91.2348V4.88824H82.9564V14.9675H89.4762V19.4232H82.9564V31.0598H91.3206V35.4289H76.6511V0.389329Z" fill="white"/>
<path d="M105.85 35.9048C102.561 35.9048 100.188 34.881 98.7297 32.8334C97.2999 30.757 96.585 27.7721 96.585 23.8788V12.1124C96.585 8.10381 97.3285 5.09011 98.8155 3.07137C100.302 1.02379 102.862 0 106.493 0C109.925 0 112.384 0.865176 113.871 2.59553C115.358 4.29704 116.101 6.83488 116.101 10.2091V12.0259H110.053V10.036C110.053 8.76711 109.968 7.75774 109.796 7.00792C109.653 6.2581 109.324 5.68132 108.81 5.27757C108.323 4.87382 107.58 4.67195 106.579 4.67195C105.521 4.67195 104.735 4.9315 104.22 5.4506C103.705 5.96971 103.362 6.63301 103.191 7.44051C103.048 8.248 102.976 9.30063 102.976 10.5984V25.2631C102.976 27.253 103.233 28.7382 103.748 29.7188C104.291 30.6993 105.292 31.1896 106.751 31.1896C108.18 31.1896 109.167 30.6705 109.71 29.6322C110.282 28.594 110.568 27.0367 110.568 24.9603V21.6726H106.836V17.6496H116.273V35.4289H112.155L111.726 32.0115C110.64 34.607 108.681 35.9048 105.85 35.9048Z" fill="white"/>
<path d="M128.437 0.389329H135.214L142.163 35.4289H136.287L134.914 27.3395H128.866L127.451 35.4289H121.488L128.437 0.389329ZM134.228 23.2732L131.869 8.56523L129.51 23.2732H134.228Z" fill="white"/>
<path d="M147.802 0.389329H152.22L160.67 20.3749V0.389329H165.903V35.4289H161.699L153.206 14.4917V35.4289H147.802V0.389329Z" fill="white"/>
<path d="M9.19944 35.9048C5.9342 35.9048 3.57756 34.881 2.1295 32.8334C0.709833 30.757 0 27.7721 0 23.8788V12.1124C0 8.10381 0.738227 5.09011 2.21468 3.07137C3.69113 1.02379 6.23234 0 9.83829 0C13.2455 0 15.6873 0.865176 17.1638 2.59553C18.6402 4.29704 19.3784 6.83488 19.3784 10.2091V12.0259H13.3733V10.036C13.3733 8.76711 13.2881 7.75774 13.1177 7.00792C12.9757 6.2581 12.6492 5.68132 12.1381 5.27757C11.6555 4.87382 10.9172 4.67195 9.92347 4.67195C8.87292 4.67195 8.0921 4.9315 7.58102 5.4506C7.06994 5.96971 6.72922 6.63301 6.55886 7.44051C6.41689 8.248 6.34591 9.30063 6.34591 10.5984V25.2631C6.34591 27.253 6.60145 28.7382 7.11253 29.7188C7.652 30.6993 8.64577 31.1896 10.0938 31.1896C11.5135 31.1896 12.4931 30.6705 13.0325 29.6322C13.6004 28.594 13.8843 27.0367 13.8843 24.9603V21.6726H10.179V17.6496H19.5488V35.4289H15.4602L15.0343 32.0115C13.9553 34.607 12.0104 35.9048 9.19944 35.9048Z" fill="#659EBC"/>
<path d="M35.8861 35.9048C32.3085 35.9048 29.7531 34.9386 28.2199 33.0064C26.6866 31.0454 25.92 28.1903 25.92 24.4412V11.2905C25.92 7.57028 26.6866 4.75846 28.2199 2.85508C29.7531 0.951692 32.3085 0 35.8861 0C39.4352 0 41.9764 0.951692 43.5097 2.85508C45.0429 4.75846 45.8095 7.57028 45.8095 11.2905V24.4412C45.8095 28.1614 45.0287 31.0021 43.4671 32.9632C41.9338 34.9242 39.4068 35.9048 35.8861 35.9048ZM35.8861 31.1896C37.2773 31.1896 38.2143 30.7425 38.697 29.8485C39.1797 28.9545 39.421 27.6568 39.421 25.9552V9.81974C39.421 8.11823 39.1797 6.83488 38.697 5.96971C38.2427 5.10453 37.3057 4.67195 35.8861 4.67195C34.4664 4.67195 33.5152 5.11895 33.0325 6.01297C32.5498 6.87814 32.3085 8.14707 32.3085 9.81974V25.9552C32.3085 27.6568 32.5498 28.9545 33.0325 29.8485C33.5152 30.7425 34.4664 31.1896 35.8861 31.1896Z" fill="#659EBC"/>
</svg>
